<svg width="386" height="122" viewBox="0 0 386 122" fill="none" xmlns="http://www.w3.org/2000/svg">
<rect width="386" height="122" fill="#1A1A2E"/>
<path d="M168.062 48.8203C169.544 48.8203 170.919 49.0075 172.188 49.3818C173.474 49.7562 174.589 50.3177 175.533 51.0664C176.493 51.7988 177.242 52.7184 177.779 53.8252C178.333 54.932 178.609 56.2259 178.609 57.707V72.8438C178.609 74.1133 178.471 75.2363 178.194 76.2129C177.918 77.1732 177.551 78.0114 177.096 78.7275C176.656 79.4274 176.152 80.0296 175.582 80.5342C175.012 81.0225 174.435 81.4212 173.849 81.7305C172.449 82.4792 170.862 82.9023 169.088 83H160.982C160.055 83 159.339 82.8454 158.834 82.5361C158.329 82.2106 157.963 81.7874 157.735 81.2666C157.507 80.7295 157.369 80.1273 157.32 79.46C157.288 78.7926 157.271 78.1009 157.271 77.3848V54.3867C157.271 53.6868 157.288 53.0033 157.32 52.3359C157.369 51.6686 157.507 51.0745 157.735 50.5537C157.963 50.0329 158.329 49.6178 158.834 49.3086C159.339 48.9831 160.055 48.8203 160.982 48.8203H168.062ZM164.693 54.5332V77.1895H167.867C168.567 77.1569 169.194 76.9941 169.747 76.7012C169.975 76.5872 170.203 76.4326 170.431 76.2373C170.659 76.042 170.862 75.8141 171.041 75.5537C171.22 75.277 171.358 74.9515 171.456 74.5771C171.57 74.2028 171.627 73.7715 171.627 73.2832V58.8789C171.627 58.3418 171.57 57.8698 171.456 57.4629C171.358 57.0397 171.22 56.6735 171.041 56.3643C170.862 56.055 170.659 55.7946 170.431 55.583C170.203 55.3714 169.975 55.2005 169.747 55.0703C169.194 54.7611 168.567 54.582 167.867 54.5332H164.693ZM203.561 69.084C203.561 69.3444 203.544 69.6536 203.512 70.0117C203.479 70.3535 203.349 70.6872 203.121 71.0127C202.91 71.3219 202.568 71.5905 202.096 71.8184C201.624 72.0462 200.956 72.1602 200.094 72.1602H190.377V74.5039C190.377 74.8945 190.426 75.3014 190.523 75.7246C190.621 76.1478 190.784 76.5384 191.012 76.8965C191.256 77.2546 191.573 77.5475 191.964 77.7754C192.354 78.0033 192.835 78.1172 193.404 78.1172C194.055 78.1172 194.552 78.0439 194.894 77.8975C195.252 77.7347 195.528 77.5394 195.724 77.3115C195.935 77.0837 196.122 76.8395 196.285 76.5791C196.448 76.3187 196.66 76.0745 196.92 75.8467C197.197 75.6188 197.571 75.4316 198.043 75.2852C198.531 75.1224 199.199 75.041 200.045 75.041C200.452 75.041 200.842 75.0736 201.217 75.1387C201.607 75.2038 201.949 75.3258 202.242 75.5049C202.535 75.6839 202.771 75.9362 202.95 76.2617C203.129 76.571 203.219 76.9779 203.219 77.4824C203.219 78.5404 202.885 79.4274 202.218 80.1436C201.55 80.8434 200.712 81.4049 199.703 81.8281C198.694 82.2513 197.595 82.5524 196.407 82.7314C195.235 82.9105 194.137 83 193.111 83C191.76 82.9837 190.475 82.8128 189.254 82.4873C188.033 82.1618 186.951 81.641 186.007 80.9248C185.079 80.2087 184.339 79.2728 183.785 78.1172C183.232 76.9616 182.955 75.5456 182.955 73.8691V68.1562C182.955 66.61 183.134 65.2998 183.492 64.2256C183.867 63.1514 184.347 62.2562 184.933 61.54C185.519 60.8239 186.178 60.2705 186.91 59.8799C187.643 59.473 188.383 59.1719 189.132 58.9766C189.881 58.7812 190.589 58.6592 191.256 58.6104C191.939 58.5615 192.525 58.5371 193.014 58.5371C194.658 58.5371 196.057 58.6836 197.213 58.9766C198.385 59.2695 199.361 59.652 200.143 60.124C200.924 60.596 201.542 61.1413 201.998 61.7598C202.454 62.3783 202.796 63.0212 203.023 63.6885C203.251 64.3395 203.398 65.0068 203.463 65.6904C203.528 66.3577 203.561 66.9844 203.561 67.5703V69.084ZM190.377 68.498H196.48C196.48 67.7331 196.456 67.0576 196.407 66.4717C196.375 65.8695 196.253 65.3649 196.041 64.958C195.846 64.5511 195.528 64.2419 195.089 64.0303C194.666 63.8187 194.055 63.7129 193.258 63.7129C192.59 63.7129 192.062 63.8187 191.671 64.0303C191.297 64.2419 191.012 64.5104 190.816 64.8359C190.621 65.1452 190.499 65.4788 190.45 65.8369C190.401 66.195 190.377 66.5124 190.377 66.7891V68.498ZM220.211 79.1914C219.853 80.1354 219.519 80.8678 219.21 81.3887C218.901 81.8932 218.6 82.2676 218.307 82.5117C218.014 82.7559 217.721 82.9023 217.428 82.9512C217.135 82.9837 216.826 83 216.5 83C216.142 83 215.808 82.9837 215.499 82.9512C215.19 82.9023 214.881 82.764 214.571 82.5361C214.262 82.292 213.945 81.9176 213.619 81.4131C213.294 80.8923 212.952 80.1517 212.594 79.1914L207.076 64.7383C206.93 64.3477 206.791 63.9326 206.661 63.4932C206.547 63.0374 206.49 62.5898 206.49 62.1504C206.49 61.6784 206.547 61.2308 206.661 60.8076C206.791 60.3682 206.995 59.9857 207.271 59.6602C207.548 59.3346 207.906 59.0742 208.346 58.8789C208.785 58.6836 209.322 58.5859 209.957 58.5859C210.413 58.5859 210.828 58.6836 211.202 58.8789C211.593 59.0742 211.935 59.3346 212.228 59.6602C212.537 59.9857 212.805 60.36 213.033 60.7832C213.261 61.2064 213.44 61.6458 213.57 62.1016L216.305 70.9883H216.695L219.234 62.1016C219.348 61.6947 219.511 61.2796 219.723 60.8564C219.934 60.4333 220.187 60.0589 220.479 59.7334C220.789 59.3916 221.147 59.1149 221.554 58.9033C221.977 58.6917 222.457 58.5859 222.994 58.5859C223.58 58.5859 224.076 58.6917 224.483 58.9033C224.89 59.0986 225.224 59.3672 225.484 59.709C225.745 60.0345 225.932 60.417 226.046 60.8564C226.16 61.2959 226.217 61.7435 226.217 62.1992C226.217 62.6224 226.16 63.0456 226.046 63.4688C225.948 63.8919 225.81 64.3151 225.631 64.7383L220.211 79.1914ZM236.715 57.4141C236.731 58.0977 236.926 58.7161 237.301 59.2695C237.691 59.8066 238.196 60.3193 238.814 60.8076C239.449 61.2959 240.165 61.776 240.963 62.248C241.76 62.7038 242.574 63.1921 243.404 63.7129C244.251 64.2174 245.073 64.7708 245.87 65.373C246.668 65.9753 247.384 66.6589 248.019 67.4238C248.653 68.1888 249.166 69.0514 249.557 70.0117C249.947 70.972 250.159 72.0625 250.191 73.2832V73.4785C250.191 74.8132 250.029 75.9769 249.703 76.9697C249.378 77.9626 248.946 78.8171 248.409 79.5332C247.872 80.2493 247.245 80.8434 246.529 81.3154C245.813 81.7712 245.056 82.1374 244.259 82.4141C243.478 82.6908 242.68 82.8861 241.866 83C241.069 83.1139 240.312 83.179 239.596 83.1953H239.352C237.968 83.1953 236.756 83.057 235.714 82.7803C234.672 82.5036 233.777 82.1374 233.028 81.6816C232.28 81.2096 231.653 80.6725 231.148 80.0703C230.66 79.4681 230.27 78.8496 229.977 78.2148C229.684 77.5638 229.472 76.9209 229.342 76.2861C229.212 75.6514 229.146 75.0573 229.146 74.5039C229.146 73.9342 229.244 73.4378 229.439 73.0146C229.635 72.5915 229.887 72.2497 230.196 71.9893C230.522 71.7126 230.888 71.5091 231.295 71.3789C231.718 71.2487 232.158 71.1836 232.613 71.1836C233.036 71.1836 233.468 71.2487 233.907 71.3789C234.363 71.5091 234.77 71.7126 235.128 71.9893C235.502 72.2497 235.803 72.5915 236.031 73.0146C236.275 73.4215 236.406 73.9017 236.422 74.4551C236.454 75.6758 236.731 76.514 237.252 76.9697C237.773 77.4092 238.521 77.6289 239.498 77.6289C239.986 77.6126 240.434 77.5557 240.841 77.458C241.264 77.3441 241.622 77.1569 241.915 76.8965C242.208 76.6198 242.436 76.2617 242.599 75.8223C242.778 75.3665 242.867 74.7969 242.867 74.1133C242.867 73.2669 242.672 72.502 242.281 71.8184C241.907 71.1348 241.41 70.5 240.792 69.9141C240.174 69.3281 239.465 68.7747 238.668 68.2539C237.87 67.7168 237.057 67.1878 236.227 66.667C235.396 66.1299 234.583 65.5765 233.785 65.0068C233.004 64.4209 232.296 63.7861 231.661 63.1025C231.026 62.4189 230.514 61.6621 230.123 60.832C229.749 60.002 229.553 59.0579 229.537 58V57.6094C229.553 55.8678 229.781 54.4193 230.221 53.2637C230.676 52.1081 231.336 51.1885 232.198 50.5049C233.077 49.8213 234.151 49.3411 235.421 49.0645C236.69 48.7715 238.147 48.625 239.791 48.625H240.426C241.923 48.625 243.193 48.7878 244.234 49.1133C245.276 49.4388 246.139 49.8538 246.822 50.3584C247.522 50.863 248.067 51.4326 248.458 52.0674C248.865 52.7021 249.166 53.3288 249.361 53.9473C249.557 54.5658 249.679 55.1436 249.728 55.6807C249.776 56.2178 249.801 56.6491 249.801 56.9746C249.801 57.4629 249.703 57.9105 249.508 58.3174C249.329 58.708 249.076 59.0417 248.751 59.3184C248.442 59.5951 248.067 59.8148 247.628 59.9775C247.205 60.124 246.741 60.1973 246.236 60.1973C245.846 60.1973 245.455 60.124 245.064 59.9775C244.674 59.8148 244.324 59.6113 244.015 59.3672C243.705 59.123 243.453 58.8464 243.258 58.5371C243.062 58.2116 242.965 57.8861 242.965 57.5605C242.965 56.2259 242.721 55.2982 242.232 54.7773C241.76 54.2565 241.061 53.9961 240.133 53.9961C239.693 53.9961 239.262 54.0205 238.839 54.0693C238.432 54.1182 238.066 54.2565 237.74 54.4844C237.431 54.696 237.179 55.0296 236.983 55.4854C236.804 55.9411 236.715 56.584 236.715 57.4141ZM258.053 58.5859V54.2891C258.053 53.6055 258.085 52.9382 258.15 52.2871C258.232 51.6361 258.403 51.0583 258.663 50.5537C258.924 50.0329 259.298 49.6178 259.786 49.3086C260.274 48.9831 260.934 48.8203 261.764 48.8203C262.577 48.8203 263.229 48.9831 263.717 49.3086C264.205 49.6178 264.571 50.0329 264.815 50.5537C265.076 51.0583 265.239 51.6361 265.304 52.2871C265.385 52.9382 265.426 53.6055 265.426 54.2891V58.5859H267.428C267.851 58.5859 268.274 58.6104 268.697 58.6592C269.12 58.6917 269.495 58.8057 269.82 59.001C270.162 59.1963 270.431 59.4893 270.626 59.8799C270.838 60.2705 270.943 60.8158 270.943 61.5156C270.943 62.1829 270.838 62.7119 270.626 63.1025C270.431 63.4932 270.162 63.7861 269.82 63.9814C269.495 64.1768 269.12 64.307 268.697 64.3721C268.274 64.4209 267.851 64.4453 267.428 64.4453H265.426V72.9902C265.426 73.3158 265.434 73.6657 265.45 74.04C265.483 74.3981 265.572 74.7318 265.719 75.041C265.865 75.3503 266.085 75.6107 266.378 75.8223C266.671 76.0176 267.086 76.1152 267.623 76.1152C268.209 76.1152 268.705 76.1641 269.112 76.2617C269.535 76.3431 269.877 76.4977 270.138 76.7256C270.414 76.9535 270.618 77.2708 270.748 77.6777C270.878 78.0846 270.943 78.6055 270.943 79.2402C270.943 79.8913 270.789 80.4528 270.479 80.9248C270.187 81.3968 269.788 81.7874 269.283 82.0967C268.779 82.4059 268.193 82.6338 267.525 82.7803C266.858 82.9268 266.158 83 265.426 83C264.27 83 263.277 82.8779 262.447 82.6338C261.633 82.3896 260.95 82.0479 260.396 81.6084C259.859 81.1527 259.428 80.6156 259.103 79.9971C258.793 79.3623 258.557 78.6543 258.395 77.873C258.248 77.0918 258.15 76.2536 258.102 75.3584C258.069 74.4469 258.053 73.4948 258.053 72.502V64.4453H256.686C256.262 64.4453 255.839 64.4209 255.416 64.3721C255.009 64.307 254.643 64.1768 254.317 63.9814C253.992 63.7861 253.723 63.4932 253.512 63.1025C253.316 62.7119 253.219 62.1829 253.219 61.5156C253.219 60.8158 253.316 60.2705 253.512 59.8799C253.723 59.4893 253.992 59.1963 254.317 59.001C254.643 58.8057 255.009 58.6917 255.416 58.6592C255.839 58.6104 256.262 58.5859 256.686 58.5859H258.053ZM274.898 67.7656C274.898 66.2682 275.102 64.9987 275.509 63.957C275.916 62.9154 276.437 62.0446 277.071 61.3447C277.722 60.6449 278.438 60.0996 279.22 59.709C280.017 59.3184 280.799 59.0254 281.563 58.8301C282.328 58.6348 283.036 58.5127 283.688 58.4639C284.355 58.415 284.876 58.3906 285.25 58.3906C285.624 58.3906 286.137 58.415 286.788 58.4639C287.439 58.5127 288.131 58.6348 288.863 58.8301C289.612 59.0254 290.361 59.3184 291.109 59.709C291.874 60.0996 292.558 60.6449 293.16 61.3447C293.779 62.0446 294.283 62.9154 294.674 63.957C295.064 64.9987 295.26 66.2682 295.26 67.7656V73.8203C295.26 75.3177 295.064 76.5872 294.674 77.6289C294.283 78.6706 293.779 79.5413 293.16 80.2412C292.558 80.9411 291.874 81.4863 291.109 81.877C290.361 82.2676 289.612 82.5605 288.863 82.7559C288.131 82.9512 287.439 83.0732 286.788 83.1221C286.137 83.1709 285.624 83.1953 285.25 83.1953C284.876 83.1953 284.355 83.1709 283.688 83.1221C283.036 83.0732 282.328 82.9512 281.563 82.7559C280.799 82.5605 280.017 82.2676 279.22 81.877C278.438 81.4863 277.722 80.9411 277.071 80.2412C276.437 79.5413 275.916 78.6706 275.509 77.6289C275.102 76.5872 274.898 75.3177 274.898 73.8203V67.7656ZM282.418 75.5293C282.434 76.0013 282.548 76.4163 282.76 76.7744C282.939 77.0999 283.215 77.3929 283.59 77.6533C283.98 77.8975 284.534 78.0195 285.25 78.0195C285.934 78.0195 286.454 77.8975 286.812 77.6533C287.187 77.3929 287.464 77.0999 287.643 76.7744C287.838 76.4163 287.952 76.0013 287.984 75.5293V66.6914C287.952 66.2031 287.838 65.7555 287.643 65.3486C287.464 65.0231 287.187 64.722 286.812 64.4453C286.454 64.1523 285.934 64.0059 285.25 64.0059C284.534 64.0059 283.98 64.1523 283.59 64.4453C283.215 64.722 282.939 65.0231 282.76 65.3486C282.548 65.7555 282.434 66.2031 282.418 66.6914V75.5293ZM315.963 62.248C315.963 63.5176 315.646 64.4453 315.011 65.0312C314.392 65.6172 313.505 65.9102 312.35 65.9102C312.187 65.9102 311.951 65.9264 311.642 65.959C311.349 65.9753 311.031 66.0404 310.689 66.1543C310.348 66.252 309.998 66.4066 309.64 66.6182C309.298 66.8135 308.98 67.0902 308.688 67.4482C308.395 67.79 308.159 68.2295 307.979 68.7666C307.8 69.3037 307.711 69.9466 307.711 70.6953V77.6777C307.711 78.3451 307.67 78.9961 307.589 79.6309C307.524 80.2656 307.361 80.8353 307.101 81.3398C306.84 81.8281 306.466 82.2269 305.978 82.5361C305.489 82.8454 304.83 83 304 83C303.186 83 302.543 82.8454 302.071 82.5361C301.599 82.2269 301.233 81.8281 300.973 81.3398C300.729 80.8353 300.566 80.2656 300.484 79.6309C300.419 78.9961 300.387 78.3451 300.387 77.6777V64.0059C300.387 63.3223 300.419 62.6631 300.484 62.0283C300.566 61.3773 300.729 60.7995 300.973 60.2949C301.233 59.7904 301.599 59.3916 302.071 59.0986C302.543 58.7894 303.186 58.6348 304 58.6348C304.83 58.6348 305.465 58.8219 305.904 59.1963C306.36 59.5544 306.694 60.0264 306.905 60.6123C307.117 61.182 307.239 61.8249 307.271 62.541C307.304 63.2409 307.32 63.9245 307.32 64.5918H307.711C307.939 63.6803 308.24 62.8584 308.614 62.126C308.989 61.3773 309.404 60.7507 309.859 60.2461C310.315 59.7253 310.803 59.3265 311.324 59.0498C311.845 58.7731 312.366 58.6348 312.887 58.6348C313.521 58.6348 314.034 58.708 314.425 58.8545C314.832 58.9847 315.149 59.1963 315.377 59.4893C315.605 59.7822 315.759 60.1566 315.841 60.6123C315.922 61.068 315.963 61.6133 315.963 62.248ZM339.352 69.084C339.352 69.3444 339.335 69.6536 339.303 70.0117C339.27 70.3535 339.14 70.6872 338.912 71.0127C338.701 71.3219 338.359 71.5905 337.887 71.8184C337.415 72.0462 336.747 72.1602 335.885 72.1602H326.168V74.5039C326.168 74.8945 326.217 75.3014 326.314 75.7246C326.412 76.1478 326.575 76.5384 326.803 76.8965C327.047 77.2546 327.364 77.5475 327.755 77.7754C328.146 78.0033 328.626 78.1172 329.195 78.1172C329.846 78.1172 330.343 78.0439 330.685 77.8975C331.043 77.7347 331.319 77.5394 331.515 77.3115C331.726 77.0837 331.913 76.8395 332.076 76.5791C332.239 76.3187 332.451 76.0745 332.711 75.8467C332.988 75.6188 333.362 75.4316 333.834 75.2852C334.322 75.1224 334.99 75.041 335.836 75.041C336.243 75.041 336.633 75.0736 337.008 75.1387C337.398 75.2038 337.74 75.3258 338.033 75.5049C338.326 75.6839 338.562 75.9362 338.741 76.2617C338.92 76.571 339.01 76.9779 339.01 77.4824C339.01 78.5404 338.676 79.4274 338.009 80.1436C337.341 80.8434 336.503 81.4049 335.494 81.8281C334.485 82.2513 333.386 82.5524 332.198 82.7314C331.026 82.9105 329.928 83 328.902 83C327.551 82.9837 326.266 82.8128 325.045 82.4873C323.824 82.1618 322.742 81.641 321.798 80.9248C320.87 80.2087 320.13 79.2728 319.576 78.1172C319.023 76.9616 318.746 75.5456 318.746 73.8691V68.1562C318.746 66.61 318.925 65.2998 319.283 64.2256C319.658 63.1514 320.138 62.2562 320.724 61.54C321.31 60.8239 321.969 60.2705 322.701 59.8799C323.434 59.473 324.174 59.1719 324.923 58.9766C325.672 58.7812 326.38 58.6592 327.047 58.6104C327.73 58.5615 328.316 58.5371 328.805 58.5371C330.449 58.5371 331.848 58.6836 333.004 58.9766C334.176 59.2695 335.152 59.652 335.934 60.124C336.715 60.596 337.333 61.1413 337.789 61.7598C338.245 62.3783 338.587 63.0212 338.814 63.6885C339.042 64.3395 339.189 65.0068 339.254 65.6904C339.319 66.3577 339.352 66.9844 339.352 67.5703V69.084ZM326.168 68.498H332.271C332.271 67.7331 332.247 67.0576 332.198 66.4717C332.166 65.8695 332.044 65.3649 331.832 64.958C331.637 64.5511 331.319 64.2419 330.88 64.0303C330.457 63.8187 329.846 63.7129 329.049 63.7129C328.382 63.7129 327.853 63.8187 327.462 64.0303C327.088 64.2419 326.803 64.5104 326.607 64.8359C326.412 65.1452 326.29 65.4788 326.241 65.8369C326.192 66.195 326.168 66.5124 326.168 66.7891V68.498Z" fill="white"/>
<path d="M108 48.3438V92.5625H38V48.3438C38 47.0484 39.05 46 40.3438 46H105.656C106.95 46 108 47.0484 108 48.3438Z" fill="#447D99"/>
<path d="M48.4625 46C47.1297 46 46.0484 47.0812 46.0484 48.4141V92.5609H38V48.3437C38 47.0484 39.05 46 40.3438 46H48.4625Z" fill="#548EB5"/>
<path d="M103 92.5622H43.0003V52.0936C43.0003 51.4895 43.49 50.9998 44.0941 50.9998H101.906C102.51 50.9998 103 51.4895 103 52.0936V92.5622Z" fill="#C9EBFA"/>
<path d="M46.048 51.0006V92.5617H43.0008V52.0944C43.0008 51.4903 43.4905 51.0006 44.0945 51.0006H46.048Z" fill="#A0DDF3"/>
<path d="M113 92.0938V96.3125C113 98.9016 110.902 101 108.312 101H37.6875C35.0984 101 33 98.9016 33 96.3125V92.0938C33 91.4891 33.4906 91 34.0938 91H58.0002L63.0011 92.5625H83L88 91H111.906C112.511 91 113 91.4891 113 92.0938Z" fill="#F5FCFF"/>
<path d="M45.8766 101H37.6875C35.0984 101 33 98.9016 33 96.3125V92.0938C33 91.4891 33.4906 91 34.0938 91H41.0484V96.1703C41.0484 98.8375 43.2094 101 45.8766 101Z" fill="#DFF1F7"/>
<path d="M91.1297 70.1461L82.0354 65.9994C80.6507 59.8178 82.2407 54.5055 85.4946 51.0134L85.501 51.0102L90.2521 55.752C90.4136 55.9133 90.5208 56.1211 90.5583 56.3464L92.6624 68.9711C92.8063 69.8352 91.9268 70.5096 91.1297 70.1461V70.1461Z" fill="#E94560"/>
<path d="M63.933 66.0139L54.8708 70.1461C54.0738 70.5096 53.1941 69.8352 53.3382 68.9711L55.4422 56.3466C55.4797 56.1214 55.5869 55.9136 55.7485 55.7522L60.4996 51.0103L60.5108 51.0184C63.3682 52.8025 65.9168 61.0047 63.933 66.0139V66.0139Z" fill="#E94560"/>
<path d="M63.0002 75.9994C63.0002 75.9994 63.0116 79.6181 63.0002 80.9958C60.5002 80.9997 58.0002 83.3105 58.0002 86.0002H53.0002C50.5002 86.0002 48.0002 88.4997 48.0002 90.9998H98C98 88.4997 95.5 86.0002 93 86.0002H88C88 83.4167 85.9311 80.9958 83 80.9958C83 79.7792 83 75.9994 83 75.9994L80.497 74.4369H65.5031L63.0002 75.9994Z" fill="#A0DDF3"/>
<path d="M68.0002 75.9995L72.0221 84.0372C72.4252 84.843 73.5752 84.843 73.9783 84.0372L78.0002 75.9995L75.7083 74.437H70.3297L68.0002 75.9995Z" fill="#FCD700"/>
<path d="M63.0002 75.9994L65.5002 70.9997L67.1289 69.4372H78.7813L80.5002 70.9997L83.0002 75.9994H63.0002Z" fill="#73A2DA"/>
<path d="M70.3297 70.9991L67.8299 75.9986H63.001L65.5008 70.9991L67.1289 69.4372L70.3297 70.9991Z" fill="#8CBDF9"/>
<path d="M88.0002 90.9997H58.0002L63.0002 95.9997H83.0002L88.0002 90.9997Z" fill="#548EB5"/>
<path d="M85.5008 50.5465C85.5008 54.7757 83.8203 60.2728 82.0355 65.9995C81.5195 67.6551 80.4971 69.2804 78.9371 69.4365H67.0631C67.0631 69.4365 64.8049 68.9125 63.9328 66.0139C63.6358 65.0262 63.3181 63.9445 63.0008 62.8187C61.75 58.3858 60.4994 53.2734 60.4994 50.5467C60.4994 44.6586 61.5553 38.9089 63.5352 33.7097C65 29.8609 66.9702 29.4382 69.3911 26.3573C71.7975 23.3811 74.2024 23.3811 76.6089 26.3573C79.0299 29.4382 81 29.8609 82.4649 33.7097C84.4449 38.9087 85.5008 44.6584 85.5008 50.5465V50.5465Z" fill="#F5FCFF"/>
<path d="M73.0001 56.0063C77.1406 56.0063 80.4972 52.6499 80.4972 48.5097C80.4972 44.3695 77.1406 41.0131 73.0001 41.0131C68.8596 41.0131 65.5031 44.3695 65.5031 48.5097C65.5031 52.6499 68.8596 56.0063 73.0001 56.0063Z" fill="#E94560"/>
<path d="M74.6098 55.8328C74.0916 55.947 73.5523 56.0067 73.0002 56.0067C68.8666 56.0067 65.5039 52.6442 65.5039 48.5105C65.5039 44.3769 68.8666 41.0126 73.0002 41.0126C73.5523 41.0126 74.0916 41.0722 74.6098 41.1881C71.2472 41.9253 68.7233 44.9289 68.7233 48.5105C68.7233 52.092 71.2472 55.0939 74.6098 55.8328Z" fill="#EB5569"/>
<path d="M73.0002 51.0097C74.3809 51.0097 75.5002 49.8904 75.5002 48.5097C75.5002 47.129 74.3809 46.0097 73.0002 46.0097C71.6195 46.0097 70.5002 47.129 70.5002 48.5097C70.5002 49.8904 71.6195 51.0097 73.0002 51.0097Z" fill="#8CBDF9"/>
<path d="M73.805 50.8766C73.5523 50.9634 73.2819 51.0102 73.0001 51.0102C71.6191 51.0102 70.5003 49.8898 70.5003 48.5103C70.5003 47.1292 71.6191 46.0089 73.0001 46.0089C73.2819 46.0089 73.5523 46.0556 73.805 46.1425C72.8183 46.4773 72.11 47.4109 72.11 48.5103C72.11 49.6081 72.8183 50.5419 73.805 50.8766Z" fill="#73A2DA"/>
<path d="M69.3575 31.3159C66.7401 37.1172 65.3284 43.7394 65.3284 50.5465C65.3284 53.2733 66.5792 58.3856 67.8298 62.8186C68.1453 63.9389 68.4625 65.0158 68.757 65.9992C69.6311 68.9062 66.9258 66.959 66.9258 66.959L65.539 66.9959L63.9281 65.9992C63.6336 65.0156 63.3164 63.9389 63.0009 62.8186C61.7501 58.3856 60.4995 53.2733 60.4995 50.5465C60.4995 44.6584 61.5554 38.9087 63.5353 33.7095C65.0001 29.8608 70.6806 28.3847 69.3575 31.3159V31.3159Z" fill="#DFF1F7"/>
<path d="M82.465 33.7095C79.7317 31.955 76.4819 30.9361 73.0002 30.9361C69.5185 30.9361 66.2686 31.955 63.5353 33.7095C65.0002 29.8608 66.9703 26.3131 69.3913 23.2322C71.7977 20.2559 74.2025 20.2559 76.6091 23.2322C79.03 26.3131 81.0002 29.8608 82.465 33.7095V33.7095Z" fill="#E94560"/>
<path d="M75.4147 21.9992C75.0171 22.3292 74.618 22.7397 74.2203 23.2322C72.3097 25.6628 70.6807 28.3847 69.3575 31.3159C67.2536 31.7619 65.2883 32.5844 63.5353 33.7095C65.0002 29.8608 66.9703 26.3131 69.3913 23.2322C71.4002 20.7484 73.4074 20.3381 75.4147 21.9992V21.9992Z" fill="#EB5569"/>
<path d="M82.0356 66.0002H63.9284L65.5001 70.9997H80.5001L82.0356 66.0002Z" fill="#E94560"/>
<path d="M70.3296 70.9991H65.5006L65.486 70.9556L63.9392 66.0366L63.9279 65.9995H68.757C69.631 68.9064 70.3296 70.9991 70.3296 70.9991Z" fill="#EB5569"/>
</svg>
